<?xml version="1.0" encoding="UTF-8"?>
<svg viewBox="0 0 48 48" xmlns="http://www.w3.org/2000/svg" xmlns:xlink="http://www.w3.org/1999/xlink">
 <defs>
  <filter id="n" x="-.07863" y="-.18155" width="1.1573" height="1.3631">
   <feGaussianBlur stdDeviation=".36244"/>
  </filter>
  <filter id="m" x="-.1627" y="-.09341" width="1.3254" height="1.1868">
   <feGaussianBlur stdDeviation=".36244"/>
  </filter>
  <filter id="l" x="-.13295" y="-.09941" width="1.2659" height="1.1988">
   <feGaussianBlur stdDeviation=".36244"/>
  </filter>
  <filter id="k" x="-.18584" y="-.07908" width="1.3717" height="1.1582">
   <feGaussianBlur stdDeviation=".36244"/>
  </filter>
  <filter id="o" x="-.05255" y="-.26471" width="1.1051" height="1.5294">
   <feGaussianBlur stdDeviation=".81342"/>
  </filter>
  <linearGradient id="a">
   <stop stop-color="#7ed249" offset="0"/>
   <stop stop-color="#286325" offset="1"/>
  </linearGradient>
  <linearGradient id="j" x1="46.663" x2="37.325" y1="33.831" y2="41.263" gradientTransform="matrix(.99362 -.1128 .1128 .99362 -5.0759 3.767)" gradientUnits="userSpaceOnUse" xlink:href="#a"/>
  <linearGradient id="i" x1="10.656" x2="33.095" y1="28.932" y2="46.232" gradientUnits="userSpaceOnUse" xlink:href="#a"/>
  <linearGradient id="h" x1="31.534" x2="24.197" y1="32.481" y2="30.773" gradientUnits="userSpaceOnUse" xlink:href="#a"/>
  <linearGradient id="g" x1="14.622" x2="33.095" y1="22.236" y2="46.232" gradientUnits="userSpaceOnUse" xlink:href="#a"/>
  <linearGradient id="f" x1="19.206" x2="33.202" y1="39.085" y2="25.56" gradientTransform="matrix(-.99278 -.11995 -.11995 .99278 56.679 3.5802)" gradientUnits="userSpaceOnUse" xlink:href="#a"/>
  <linearGradient id="e" x1="13.163" x2="31.722" y1="33.927" y2="23.669" gradientUnits="userSpaceOnUse" xlink:href="#a"/>
  <linearGradient id="d" x1="32.674" x2="22.772" y1="29.947" y2="30.316" gradientUnits="userSpaceOnUse" xlink:href="#a"/>
  <linearGradient id="c" x1="32.351" x2="21.157" y1="42.327" y2="27.794" gradientUnits="userSpaceOnUse" xlink:href="#a"/>
  <linearGradient id="b" x1="18.986" x2="31.46" y1="30.509" y2="32.337" gradientUnits="userSpaceOnUse" xlink:href="#a"/>
 </defs>
 <path d="m12.094 36.094c-2.7585 0-5 0.72979-5 1.625s2.2415 1.625 5 1.625c0.53981 0 1.0443-0.04234 1.5312-0.09375-0.23296 0.27855-0.375 0.57251-0.375 0.875 0 1.8385 4.5847 3.3438 10.25 3.3438s10.25-1.5052 10.25-3.3438c0-0.32112-0.11354-0.6437-0.375-0.9375l10.594 2.75s0.49309-1.9253 0.15625-2.0938c-0.32464-0.16232-11.883-1.699-12.75-1.8125-1.8814-0.73985-4.6883-1.2188-7.875-1.2188-2.4565 0-4.6713 0.28268-6.4375 0.75-0.23048-0.8258-2.3641-1.4688-4.9688-1.4688z" fill-opacity=".76863" fill-rule="evenodd" filter="url(#o)"/>
 <path d="m23.633 23.73c4.717 6.6633 13.365 14.698 20.539 18.178 0.76025-1.5632 1.1306-2.9166 0.82764-3.9078-7.4702-0.95251-13.979-9.1462-19.409-15.115-0.88582-1.0444-2.313-0.53608-1.9585 0.8445z" fill="url(#j)"/>
 <g transform="translate(-2.1567 .60766)">
  <path d="m27.116 22.989c-2.7408 4.9064-8.129 6.5511-9.5741 11.15-1.5693 4.9948 0.48218 9.9463 8.2267 6.7864 6.271 4.0721 10.702-1.4037 9.3349-7.8776-0.7422-3.515-7.3199-6.7347-7.9876-10.059z" fill="url(#c)"/>
  <path d="m26.863 25.179c0.92209 5.0266 0.23524 9.7351-0.8421 14.316 0.15598 0 6.0527-5.8105 0.8421-14.316z" fill="url(#b)"/>
 </g>
 <g transform="matrix(.028213 -.9996 -.9996 -.028213 45.73 51.48)">
  <path d="m27.255 21.83c-3.4987 1.1169-8.2682 7.7107-9.7133 12.31-1.5693 4.9948 0.48218 9.9463 8.2267 6.7864 5.7039 3.7039 9.9333-0.87274 9.6534-6.8465-0.1949-4.1597-3.868-8.0007-8.1669-12.25z" fill="url(#i)"/>
  <path d="m26.863 25.179c0.92209 5.0266 0.23524 9.7351-0.8421 14.316 0.15598 0 6.0527-5.8105 0.8421-14.316z" fill="url(#h)"/>
 </g>
 <g transform="matrix(-.99819 .060081 -.060081 -.99819 53.445 45.028)">
  <path d="m27.256 22.996c-3.9937 5.1365-8.2688 6.5444-9.7138 11.144-1.5693 4.9948 0.48218 9.9463 8.2267 6.7864 5.9984 3.8773 11.079-0.71008 9.7918-6.7969-0.77412-3.6616-4.8642-5.442-8.3047-11.133z" fill="url(#g)"/>
  <path d="m26.99 25.355c-1.5184 4.8798-1.4012 9.6366-0.88109 14.313-0.15486-0.01871-5.3121-6.4946 0.88109-14.313z" fill="url(#f)"/>
 </g>
 <g transform="matrix(-.0001147 -1 1 -.0001147 2.4046 50.566)">
  <path d="m26.948 22.316c-2.5726 3.3907-7.9608 7.2248-9.4058 11.824-1.5693 4.9948 0.48218 9.9463 8.2267 6.7864 6.1976 4.0244 10.024-1.8059 8.7567-8.3785-0.71108-3.6886-4.4486-7.5224-7.5775-10.232z" fill="url(#e)"/>
  <path d="m26.863 25.179c0.92209 5.0266 0.23524 9.7351-0.8421 14.316 0.15598 0 6.0527-5.8105 0.8421-14.316z" fill="url(#d)"/>
 </g>
 <path d="m21.5 5c-5.7856 2.4194-4.8315 5.9316-4.6875 9.3125 0 0-3.25-8.25 4.6875-9.3125z" fill="#fff" fill-opacity=".66518" filter="url(#m)"/>
 <path d="m11.375 15.5c-4.1299 1.1769-6.8401 3.4292-5.5 8.75-0.13451 0-4.4428-7.8125 5.5-8.75z" fill="#fff" fill-opacity=".66518" filter="url(#l)"/>
 <path d="m16.062 41.188c-1.1857-4.7216 1.5887-9.6115 4-11 0 0-6.8125 2.5625-4 11z" fill="#fff" fill-opacity=".66518" filter="url(#k)"/>
 <path d="m27.75 20.938c1.7191-1.29 5.3947-3.8487 11.062-4.5-0.55211-0.82817-7.2888-0.05817-11.062 4.5z" fill="#fff" fill-opacity=".66518" filter="url(#n)"/>
</svg>
